<svg width="1440" height="1036" viewBox="0 0 1440 1036" fill="none" xmlns="http://www.w3.org/2000/svg">
<g clip-path="url(#clip0_1_3)">
<rect width="1440" height="1036" transform="translate(1440 1036) rotate(-180)" fill="url(#paint0_linear_1_3)"/>
<g clip-path="url(#clip1_1_3)">
<path d="M-24.9 1024.3C134.4 1024.3 134.4 1224.3 293.6 1224.3C452.9 1224.3 452.9 1024.3 612.1 1024.3C771.4 1024.3 771.4 1224.3 930.6 1224.3C1089.9 1224.3 1089.9 1024.3 1249.1 1024.3C1408.4 1024.3 1408.4 1224.3 1567.6 1224.3C1726.8 1224.3 1726.9 1024.3 1886.1 1024.3" stroke="#CBCBCB" stroke-opacity="0.5" stroke-width="1.5" stroke-miterlimit="10"/>
<path d="M-24.9 1012.3C134.4 1012.3 134.4 1212.3 293.6 1212.3C452.9 1212.3 452.9 1012.3 612.1 1012.3C771.4 1012.3 771.4 1212.3 930.6 1212.3C1089.9 1212.3 1089.9 1012.3 1249.1 1012.3C1408.4 1012.3 1408.4 1212.3 1567.6 1212.3C1726.8 1212.3 1726.9 1012.3 1886.1 1012.3" stroke="#CBCBCB" stroke-opacity="0.5" stroke-width="1.5" stroke-miterlimit="10"/>
<path d="M-24.9 1000.2C134.4 1000.2 134.4 1200.2 293.6 1200.2C452.9 1200.2 452.9 1000.2 612.1 1000.2C771.4 1000.2 771.4 1200.2 930.6 1200.2C1089.9 1200.2 1089.9 1000.2 1249.1 1000.2C1408.4 1000.2 1408.4 1200.2 1567.6 1200.2C1726.8 1200.2 1726.9 1000.2 1886.1 1000.2" stroke="#CBCBCB" stroke-opacity="0.5" stroke-width="1.5" stroke-miterlimit="10"/>
<path d="M-24.9 988.2C134.4 988.2 134.4 1188.2 293.6 1188.2C452.9 1188.2 452.9 988.2 612.1 988.2C771.4 988.2 771.4 1188.2 930.6 1188.2C1089.9 1188.2 1089.9 988.2 1249.1 988.2C1408.4 988.2 1408.4 1188.2 1567.6 1188.2C1726.8 1188.2 1726.9 988.2 1886.1 988.2" stroke="#CBCBCB" stroke-opacity="0.5" stroke-width="1.5" stroke-miterlimit="10"/>
<path d="M-24.9 976.2C134.4 976.2 134.4 1176.2 293.6 1176.2C452.9 1176.2 452.9 976.2 612.1 976.2C771.4 976.2 771.4 1176.2 930.6 1176.2C1089.9 1176.2 1089.9 976.2 1249.1 976.2C1408.4 976.2 1408.4 1176.2 1567.6 1176.2C1726.8 1176.2 1726.9 976.2 1886.1 976.2" stroke="#CBCBCB" stroke-opacity="0.5" stroke-width="1.5" stroke-miterlimit="10"/>
<path d="M-24.9 964.2C134.4 964.2 134.4 1164.2 293.6 1164.2C452.9 1164.2 452.9 964.2 612.1 964.2C771.4 964.2 771.4 1164.2 930.6 1164.2C1089.9 1164.2 1089.9 964.2 1249.1 964.2C1408.4 964.2 1408.4 1164.2 1567.6 1164.2C1726.8 1164.2 1726.9 964.2 1886.1 964.2" stroke="#CBCBCB" stroke-opacity="0.5" stroke-width="1.5" stroke-miterlimit="10"/>
<path d="M-25 952.2C134.3 952.2 134.3 1152.2 293.5 1152.2C452.8 1152.2 452.8 952.2 612 952.2C771.3 952.2 771.3 1152.2 930.5 1152.2C1089.8 1152.2 1089.8 952.2 1249 952.2C1408.3 952.2 1408.3 1152.2 1567.5 1152.2C1726.7 1152.2 1726.8 952.2 1886 952.2" stroke="#CBCBCB" stroke-opacity="0.5" stroke-width="1.5" stroke-miterlimit="10"/>
<path d="M-25 940.2C134.3 940.2 134.3 1140.2 293.5 1140.2C452.8 1140.2 452.8 940.2 612 940.2C771.3 940.2 771.3 1140.2 930.5 1140.2C1089.8 1140.2 1089.8 940.2 1249 940.2C1408.3 940.2 1408.3 1140.2 1567.5 1140.2C1726.7 1140.2 1726.8 940.2 1886 940.2" stroke="#CBCBCB" stroke-opacity="0.5" stroke-width="1.5" stroke-miterlimit="10"/>
<path d="M-25 928.2C134.3 928.2 134.3 1128.2 293.5 1128.2C452.8 1128.2 452.8 928.2 612 928.2C771.3 928.2 771.3 1128.2 930.5 1128.2C1089.8 1128.2 1089.8 928.2 1249 928.2C1408.3 928.2 1408.3 1128.2 1567.5 1128.2C1726.7 1128.2 1726.8 928.2 1886 928.2" stroke="#CBCBCB" stroke-opacity="0.5" stroke-width="1.5" stroke-miterlimit="10"/>
<path d="M-25 916.2C134.3 916.2 134.3 1116.2 293.5 1116.2C452.8 1116.2 452.8 916.2 612 916.2C771.3 916.2 771.3 1116.2 930.5 1116.2C1089.8 1116.2 1089.8 916.2 1249 916.2C1408.3 916.2 1408.3 1116.2 1567.5 1116.2C1726.7 1116.2 1726.8 916.2 1886 916.2" stroke="#CBCBCB" stroke-opacity="0.5" stroke-width="1.5" stroke-miterlimit="10"/>
<path d="M-25 904.2C134.3 904.2 134.3 1104.2 293.5 1104.2C452.8 1104.2 452.8 904.2 612 904.2C771.3 904.2 771.3 1104.2 930.5 1104.2C1089.8 1104.2 1089.8 904.2 1249 904.2C1408.3 904.2 1408.3 1104.2 1567.5 1104.2C1726.7 1104.2 1726.8 904.2 1886 904.2" stroke="#CBCBCB" stroke-opacity="0.5" stroke-width="1.5" stroke-miterlimit="10"/>
<path d="M-25 892.2C134.3 892.2 134.3 1092.2 293.5 1092.2C452.8 1092.2 452.8 892.2 612 892.2C771.3 892.2 771.3 1092.2 930.5 1092.2C1089.8 1092.2 1089.8 892.2 1249 892.2C1408.3 892.2 1408.3 1092.2 1567.5 1092.2C1726.7 1092.2 1726.8 892.2 1886 892.2" stroke="#CBCBCB" stroke-opacity="0.5" stroke-width="1.5" stroke-miterlimit="10"/>
<path d="M-25.1 880.2C134.2 880.2 134.2 1080.2 293.4 1080.2C452.7 1080.2 452.7 880.2 611.9 880.2C771.2 880.2 771.2 1080.2 930.4 1080.2C1089.7 1080.2 1089.7 880.2 1248.9 880.2C1408.2 880.2 1408.2 1080.2 1567.4 1080.2C1726.6 1080.2 1726.7 880.2 1885.9 880.2" stroke="#CBCBCB" stroke-opacity="0.5" stroke-width="1.5" stroke-miterlimit="10"/>
<path d="M-25.1 868.2C134.2 868.2 134.2 1068.2 293.4 1068.2C452.7 1068.2 452.7 868.2 611.9 868.2C771.2 868.2 771.2 1068.2 930.4 1068.2C1089.7 1068.2 1089.7 868.2 1248.9 868.2C1408.2 868.2 1408.2 1068.2 1567.4 1068.2C1726.6 1068.2 1726.7 868.2 1885.9 868.2" stroke="#CBCBCB" stroke-opacity="0.5" stroke-width="1.5" stroke-miterlimit="10"/>
<path d="M-25.1 856.2C134.2 856.2 134.2 1056.2 293.4 1056.2C452.7 1056.2 452.7 856.2 611.9 856.2C771.2 856.2 771.2 1056.2 930.4 1056.2C1089.7 1056.2 1089.7 856.2 1248.9 856.2C1408.2 856.2 1408.2 1056.2 1567.4 1056.2C1726.6 1056.2 1726.7 856.2 1885.9 856.2" stroke="#CBCBCB" stroke-opacity="0.5" stroke-width="1.5" stroke-miterlimit="10"/>
<path d="M-25.1 844.1C134.2 844.1 134.2 1044.1 293.4 1044.1C452.7 1044.1 452.7 844.1 611.9 844.1C771.2 844.1 771.2 1044.1 930.4 1044.1C1089.7 1044.1 1089.7 844.1 1248.9 844.1C1408.2 844.1 1408.2 1044.1 1567.4 1044.1C1726.6 1044.1 1726.7 844.1 1885.9 844.1" stroke="#CBCBCB" stroke-opacity="0.5" stroke-width="1.5" stroke-miterlimit="10"/>
<path d="M-25.1 832.1C134.2 832.1 134.2 1032.1 293.4 1032.1C452.7 1032.1 452.7 832.1 611.9 832.1C771.2 832.1 771.2 1032.1 930.4 1032.1C1089.7 1032.1 1089.7 832.1 1248.9 832.1C1408.2 832.1 1408.2 1032.1 1567.4 1032.1C1726.6 1032.1 1726.7 832.1 1885.9 832.1" stroke="#CBCBCB" stroke-opacity="0.5" stroke-width="1.5" stroke-miterlimit="10"/>
<path d="M-25.2 820.1C134.1 820.1 134.1 1020.1 293.3 1020.1C452.6 1020.1 452.6 820.1 611.8 820.1C771.1 820.1 771.1 1020.1 930.3 1020.1C1089.6 1020.1 1089.6 820.1 1248.8 820.1C1408.1 820.1 1408.1 1020.1 1567.3 1020.1C1726.5 1020.1 1726.6 820.1 1885.8 820.1" stroke="#CBCBCB" stroke-opacity="0.5" stroke-width="1.5" stroke-miterlimit="10"/>
<path d="M-25.2 808.1C134.1 808.1 134.1 1008.1 293.3 1008.1C452.6 1008.1 452.6 808.1 611.8 808.1C771.1 808.1 771.1 1008.1 930.3 1008.1C1089.6 1008.1 1089.6 808.1 1248.8 808.1C1408.1 808.1 1408.1 1008.1 1567.3 1008.1C1726.5 1008.1 1726.6 808.1 1885.8 808.1" stroke="#CBCBCB" stroke-opacity="0.5" stroke-width="1.5" stroke-miterlimit="10"/>
<path d="M-25.2 796.1C134.1 796.1 134.1 996.1 293.3 996.1C452.6 996.1 452.6 796.1 611.8 796.1C771.1 796.1 771.1 996.1 930.3 996.1C1089.6 996.1 1089.6 796.1 1248.8 796.1C1408.1 796.1 1408.1 996.1 1567.3 996.1C1726.5 996.1 1726.6 796.1 1885.8 796.1" stroke="#CBCBCB" stroke-opacity="0.5" stroke-width="1.5" stroke-miterlimit="10"/>
<path d="M-25.2 784.1C134.1 784.1 134.1 984.1 293.3 984.1C452.6 984.1 452.6 784.1 611.8 784.1C771.1 784.1 771.1 984.1 930.3 984.1C1089.6 984.1 1089.6 784.1 1248.8 784.1C1408.1 784.1 1408.1 984.1 1567.3 984.1C1726.5 984.1 1726.6 784.1 1885.8 784.1" stroke="#CBCBCB" stroke-opacity="0.5" stroke-width="1.5" stroke-miterlimit="10"/>
<path d="M-25.2 772.1C134.1 772.1 134.1 972.1 293.3 972.1C452.6 972.1 452.6 772.1 611.8 772.1C771.1 772.1 771.1 972.1 930.3 972.1C1089.6 972.1 1089.6 772.1 1248.8 772.1C1408.1 772.1 1408.1 972.1 1567.3 972.1C1726.5 972.1 1726.6 772.1 1885.8 772.1" stroke="#CBCBCB" stroke-opacity="0.5" stroke-width="1.5" stroke-miterlimit="10"/>
<path d="M-25.2 760.1C134.1 760.1 134.1 960.1 293.3 960.1C452.6 960.1 452.6 760.1 611.8 760.1C771.1 760.1 771.1 960.1 930.3 960.1C1089.6 960.1 1089.6 760.1 1248.8 760.1C1408.1 760.1 1408.1 960.1 1567.3 960.1C1726.5 960.1 1726.6 760.1 1885.8 760.1" stroke="#CBCBCB" stroke-opacity="0.5" stroke-width="1.5" stroke-miterlimit="10"/>
<path d="M-25.2999 748.1C134 748.1 134 948.1 293.2 948.1C452.5 948.1 452.5 748.1 611.7 748.1C771 748.1 771 948.1 930.2 948.1C1089.5 948.1 1089.5 748.1 1248.7 748.1C1408 748.1 1408 948.1 1567.2 948.1C1726.4 948.1 1726.5 748.1 1885.7 748.1" stroke="#CBCBCB" stroke-opacity="0.5" stroke-width="1.5" stroke-miterlimit="10"/>
<path d="M-25.2999 736.1C134 736.1 134 936.1 293.2 936.1C452.5 936.1 452.5 736.1 611.7 736.1C771 736.1 771 936.1 930.2 936.1C1089.5 936.1 1089.5 736.1 1248.7 736.1C1408 736.1 1408 936.1 1567.2 936.1C1726.4 936.1 1726.5 736.1 1885.7 736.1" stroke="#CBCBCB" stroke-opacity="0.5" stroke-width="1.5" stroke-miterlimit="10"/>
<path d="M-25.2999 724.1C134 724.1 134 924.1 293.2 924.1C452.5 924.1 452.5 724.1 611.7 724.1C771 724.1 771 924.1 930.2 924.1C1089.5 924.1 1089.5 724.1 1248.7 724.1C1408 724.1 1408 924.1 1567.2 924.1C1726.4 924.1 1726.5 724.1 1885.7 724.1" stroke="#CBCBCB" stroke-opacity="0.5" stroke-width="1.5" stroke-miterlimit="10"/>
<path d="M-25.2999 712.1C134 712.1 134 912.1 293.2 912.1C452.5 912.1 452.5 712.1 611.7 712.1C771 712.1 771 912.1 930.2 912.1C1089.5 912.1 1089.5 712.1 1248.7 712.1C1408 712.1 1408 912.1 1567.2 912.1C1726.4 912.1 1726.5 712.1 1885.7 712.1" stroke="#CBCBCB" stroke-opacity="0.5" stroke-width="1.5" stroke-miterlimit="10"/>
<path d="M-25.2999 700.1C134 700.1 134 900.1 293.2 900.1C452.5 900.1 452.5 700.1 611.7 700.1C771 700.1 771 900.1 930.2 900.1C1089.5 900.1 1089.5 700.1 1248.7 700.1C1408 700.1 1408 900.1 1567.2 900.1C1726.4 900.1 1726.5 700.1 1885.7 700.1" stroke="#CBCBCB" stroke-opacity="0.5" stroke-width="1.5" stroke-miterlimit="10"/>
<path d="M-25.2999 688C134 688 134 888 293.2 888C452.5 888 452.5 688 611.7 688C771 688 771 888 930.2 888C1089.5 888 1089.5 688 1248.7 688C1408 688 1408 888 1567.2 888C1726.4 888 1726.5 688 1885.7 688" stroke="#CBCBCB" stroke-opacity="0.5" stroke-width="1.5" stroke-miterlimit="10"/>
<path d="M-25.4 676C133.9 676 133.9 876 293.1 876C452.4 876 452.4 676 611.6 676C771 676 771 876 930.2 876C1089.5 876 1089.5 676 1248.7 676C1408 676 1408 876 1567.2 876C1726.4 876 1726.5 676 1885.7 676" stroke="#CBCBCB" stroke-opacity="0.5" stroke-width="1.5" stroke-miterlimit="10"/>
<path d="M-25.4 664C133.9 664 133.9 864 293.1 864C452.4 864 452.4 664 611.6 664C770.9 664 770.9 864 930.1 864C1089.4 864 1089.4 664 1248.6 664C1407.9 664 1407.9 864 1567.1 864C1726.3 864 1726.4 664 1885.6 664" stroke="#CBCBCB" stroke-opacity="0.5" stroke-width="1.5" stroke-miterlimit="10"/>
<path d="M-25.4 652C133.9 652 133.9 852 293.1 852C452.4 852 452.4 652 611.6 652C770.9 652 770.9 852 930.1 852C1089.4 852 1089.4 652 1248.6 652C1407.9 652 1407.9 852 1567.1 852C1726.3 852 1726.4 652 1885.6 652" stroke="#CBCBCB" stroke-opacity="0.5" stroke-width="1.5" stroke-miterlimit="10"/>
<path d="M-25.4 640C133.9 640 133.9 840 293.1 840C452.4 840 452.4 640 611.6 640C770.9 640 770.9 840 930.1 840C1089.4 840 1089.4 640 1248.6 640C1407.9 640 1407.9 840 1567.1 840C1726.3 840 1726.4 640 1885.6 640" stroke="#CBCBCB" stroke-opacity="0.5" stroke-width="1.5" stroke-miterlimit="10"/>
<path d="M-25.4 628C133.9 628 133.9 828 293.1 828C452.4 828 452.4 628 611.6 628C770.9 628 770.9 828 930.1 828C1089.4 828 1089.4 628 1248.6 628C1407.9 628 1407.9 828 1567.1 828C1726.3 828 1726.4 628 1885.6 628" stroke="#CBCBCB" stroke-opacity="0.5" stroke-width="1.5" stroke-miterlimit="10"/>
<path d="M-25.4 616C133.9 616 133.9 816 293.1 816C452.4 816 452.4 616 611.6 616C770.9 616 770.9 816 930.1 816C1089.4 816 1089.4 616 1248.6 616C1407.9 616 1407.9 816 1567.1 816C1726.3 816 1726.4 616 1885.6 616" stroke="#CBCBCB" stroke-opacity="0.5" stroke-width="1.5" stroke-miterlimit="10"/>
<path d="M-25.5 604C133.8 604 133.8 804 293 804C452.3 804 452.3 604 611.5 604C770.8 604 770.8 804 930 804C1089.3 804 1089.3 604 1248.5 604C1407.8 604 1407.8 804 1567 804C1726.2 804 1726.3 604 1885.5 604" stroke="#CBCBCB" stroke-opacity="0.5" stroke-width="1.5" stroke-miterlimit="10"/>
<path d="M-25.5 592C133.8 592 133.8 792 293 792C452.3 792 452.3 592 611.5 592C770.8 592 770.8 792 930 792C1089.3 792 1089.3 592 1248.5 592C1407.8 592 1407.8 792 1567 792C1726.2 792 1726.3 592 1885.5 592" stroke="#CBCBCB" stroke-opacity="0.5" stroke-width="1.5" stroke-miterlimit="10"/>
<path d="M-25.5 580C133.8 580 133.8 780 293 780C452.3 780 452.3 580 611.5 580C770.8 580 770.8 780 930 780C1089.3 780 1089.3 580 1248.5 580C1407.8 580 1407.8 780 1567 780C1726.2 780 1726.3 580 1885.5 580" stroke="#CBCBCB" stroke-opacity="0.5" stroke-width="1.5" stroke-miterlimit="10"/>
<path d="M-25.5 568C133.8 568 133.8 768 293 768C452.3 768 452.3 568 611.5 568C770.8 568 770.8 768 930 768C1089.3 768 1089.3 568 1248.5 568C1407.8 568 1407.8 768 1567 768C1726.2 768 1726.3 568 1885.5 568" stroke="#CBCBCB" stroke-opacity="0.5" stroke-width="1.5" stroke-miterlimit="10"/>
<path d="M-25.5 556C133.8 556 133.8 756 293 756C452.3 756 452.3 556 611.5 556C770.8 556 770.8 756 930 756C1089.3 756 1089.3 556 1248.5 556C1407.8 556 1407.8 756 1567 756C1726.2 756 1726.3 556 1885.5 556" stroke="#CBCBCB" stroke-opacity="0.5" stroke-width="1.5" stroke-miterlimit="10"/>
<path d="M-25.6 543.9C133.7 543.9 133.7 743.9 292.9 743.9C452.2 743.9 452.2 543.9 611.4 543.9C770.7 543.9 770.7 743.9 929.9 743.9C1089.2 743.9 1089.2 543.9 1248.4 543.9C1407.7 543.9 1407.7 743.9 1566.9 743.9C1726.1 743.9 1726.2 543.9 1885.4 543.9" stroke="#CBCBCB" stroke-opacity="0.5" stroke-width="1.5" stroke-miterlimit="10"/>
<path d="M-25.6 531.9C133.7 531.9 133.7 731.9 292.9 731.9C452.2 731.9 452.2 531.9 611.4 531.9C770.7 531.9 770.7 731.9 929.9 731.9C1089.2 731.9 1089.2 531.9 1248.4 531.9C1407.7 531.9 1407.7 731.9 1566.9 731.9C1726.1 731.9 1726.2 531.9 1885.4 531.9" stroke="#CBCBCB" stroke-opacity="0.5" stroke-width="1.5" stroke-miterlimit="10"/>
<path d="M-25.6 519.9C133.7 519.9 133.7 719.9 292.9 719.9C452.2 719.9 452.2 519.9 611.4 519.9C770.7 519.9 770.7 719.9 929.9 719.9C1089.2 719.9 1089.2 519.9 1248.4 519.9C1407.7 519.9 1407.7 719.9 1566.9 719.9C1726.1 719.9 1726.2 519.9 1885.4 519.9" stroke="#CBCBCB" stroke-opacity="0.5" stroke-width="1.5" stroke-miterlimit="10"/>
<path d="M-25.6 507.9C133.7 507.9 133.7 707.9 292.9 707.9C452.2 707.9 452.2 507.9 611.4 507.9C770.7 507.9 770.7 707.9 929.9 707.9C1089.2 707.9 1089.2 507.9 1248.4 507.9C1407.7 507.9 1407.7 707.9 1566.9 707.9C1726.1 707.9 1726.2 507.9 1885.4 507.9" stroke="#CBCBCB" stroke-opacity="0.5" stroke-width="1.5" stroke-miterlimit="10"/>
<path d="M-25.6 495.9C133.7 495.9 133.7 695.9 292.9 695.9C452.2 695.9 452.2 495.9 611.4 495.9C770.7 495.9 770.7 695.9 929.9 695.9C1089.2 695.9 1089.2 495.9 1248.4 495.9C1407.7 495.9 1407.7 695.9 1566.9 695.9C1726.1 695.9 1726.2 495.9 1885.4 495.9" stroke="#CBCBCB" stroke-opacity="0.5" stroke-width="1.5" stroke-miterlimit="10"/>
<path d="M-25.6 483.9C133.7 483.9 133.7 683.9 292.9 683.9C452.2 683.9 452.2 483.9 611.4 483.9C770.7 483.9 770.7 683.9 929.9 683.9C1089.2 683.9 1089.2 483.9 1248.4 483.9C1407.7 483.9 1407.7 683.9 1566.9 683.9C1726.1 683.9 1726.2 483.9 1885.4 483.9" stroke="#CBCBCB" stroke-opacity="0.5" stroke-width="1.5" stroke-miterlimit="10"/>
<path d="M-25.7 471.9C133.6 471.9 133.6 671.9 292.8 671.9C452.1 671.9 452.1 471.9 611.3 471.9C770.6 471.9 770.6 671.9 929.8 671.9C1089.1 671.9 1089.1 471.9 1248.3 471.9C1407.6 471.9 1407.6 671.9 1566.8 671.9C1726 671.9 1726.1 471.9 1885.3 471.9" stroke="#CBCBCB" stroke-opacity="0.5" stroke-width="1.5" stroke-miterlimit="10"/>
<path d="M-25.7 459.9C133.6 459.9 133.6 659.9 292.8 659.9C452.1 659.9 452.1 459.9 611.3 459.9C770.6 459.9 770.6 659.9 929.8 659.9C1089.1 659.9 1089.1 459.9 1248.3 459.9C1407.6 459.9 1407.6 659.9 1566.8 659.9C1726 659.9 1726.1 459.9 1885.3 459.9" stroke="#CBCBCB" stroke-opacity="0.5" stroke-width="1.5" stroke-miterlimit="10"/>
<path d="M-25.7 447.9C133.6 447.9 133.6 647.9 292.8 647.9C452.1 647.9 452.1 447.9 611.3 447.9C770.6 447.9 770.6 647.9 929.8 647.9C1089.1 647.9 1089.1 447.9 1248.3 447.9C1407.6 447.9 1407.6 647.9 1566.8 647.9C1726 647.9 1726.1 447.9 1885.3 447.9" stroke="#CBCBCB" stroke-opacity="0.5" stroke-width="1.5" stroke-miterlimit="10"/>
<path d="M-25.7 435.9C133.6 435.9 133.6 635.9 292.8 635.9C452.1 635.9 452.1 435.9 611.3 435.9C770.6 435.9 770.6 635.9 929.8 635.9C1089.1 635.9 1089.1 435.9 1248.3 435.9C1407.6 435.9 1407.6 635.9 1566.8 635.9C1726 635.9 1726.1 435.9 1885.3 435.9" stroke="#CBCBCB" stroke-opacity="0.5" stroke-width="1.5" stroke-miterlimit="10"/>
<path d="M-25.7 423.9C133.6 423.9 133.6 623.9 292.8 623.9C452.1 623.9 452.1 423.9 611.3 423.9C770.6 423.9 770.6 623.9 929.8 623.9C1089.1 623.9 1089.1 423.9 1248.3 423.9C1407.6 423.9 1407.6 623.9 1566.8 623.9C1726 623.9 1726.1 423.9 1885.3 423.9" stroke="#CBCBCB" stroke-opacity="0.5" stroke-width="1.5" stroke-miterlimit="10"/>
<path d="M-25.7 411.9C133.6 411.9 133.6 611.9 292.8 611.9C452.1 611.9 452.1 411.9 611.3 411.9C770.6 411.9 770.6 611.9 929.8 611.9C1089.1 611.9 1089.1 411.9 1248.3 411.9C1407.6 411.9 1407.6 611.9 1566.8 611.9C1726 611.9 1726.1 411.9 1885.3 411.9" stroke="#CBCBCB" stroke-opacity="0.5" stroke-width="1.5" stroke-miterlimit="10"/>
<path d="M-25.7999 399.9C133.5 399.9 133.5 599.9 292.7 599.9C452 599.9 452 399.9 611.2 399.9C770.5 399.9 770.5 599.9 929.7 599.9C1089 599.9 1089 399.9 1248.2 399.9C1407.5 399.9 1407.5 599.9 1566.7 599.9C1725.9 599.9 1726 399.9 1885.2 399.9" stroke="#CBCBCB" stroke-opacity="0.5" stroke-width="1.5" stroke-miterlimit="10"/>
<path d="M-25.7999 387.8C133.5 387.8 133.5 587.8 292.7 587.8C452 587.8 452 387.8 611.2 387.8C770.5 387.8 770.5 587.8 929.7 587.8C1089 587.8 1089 387.8 1248.2 387.8C1407.5 387.8 1407.5 587.8 1566.7 587.8C1725.9 587.8 1726 387.8 1885.2 387.8" stroke="#CBCBCB" stroke-opacity="0.5" stroke-width="1.5" stroke-miterlimit="10"/>
<path d="M-25.7999 375.8C133.5 375.8 133.5 575.8 292.7 575.8C452 575.8 452 375.8 611.2 375.8C770.5 375.8 770.5 575.8 929.7 575.8C1089 575.8 1089 375.8 1248.2 375.8C1407.5 375.8 1407.5 575.8 1566.7 575.8C1725.9 575.8 1726 375.8 1885.2 375.8" stroke="#CBCBCB" stroke-opacity="0.5" stroke-width="1.5" stroke-miterlimit="10"/>
<path d="M-25.7999 363.8C133.5 363.8 133.5 563.8 292.7 563.8C452 563.8 452 363.8 611.2 363.8C770.5 363.8 770.5 563.8 929.7 563.8C1089 563.8 1089 363.8 1248.2 363.8C1407.5 363.8 1407.5 563.8 1566.7 563.8C1725.9 563.8 1726 363.8 1885.2 363.8" stroke="#CBCBCB" stroke-opacity="0.5" stroke-width="1.5" stroke-miterlimit="10"/>
<path d="M-25.7999 351.8C133.5 351.8 133.5 551.8 292.7 551.8C452 551.8 452 351.8 611.2 351.8C770.5 351.8 770.5 551.8 929.7 551.8C1089 551.8 1089 351.8 1248.2 351.8C1407.5 351.8 1407.5 551.8 1566.7 551.8C1725.9 551.8 1726 351.8 1885.2 351.8" stroke="#CBCBCB" stroke-opacity="0.5" stroke-width="1.5" stroke-miterlimit="10"/>
<path d="M-25.7999 339.8C133.5 339.8 133.5 539.8 292.7 539.8C452 539.8 452 339.8 611.2 339.8C770.5 339.8 770.5 539.8 929.7 539.8C1089 539.8 1089 339.8 1248.2 339.8C1407.5 339.8 1407.5 539.8 1566.7 539.8C1725.9 539.8 1726 339.8 1885.2 339.8" stroke="#CBCBCB" stroke-opacity="0.5" stroke-width="1.5" stroke-miterlimit="10"/>
<path d="M-25.9 327.8C133.4 327.8 133.4 527.8 292.6 527.8C451.9 527.8 451.9 327.8 611.1 327.8C770.4 327.8 770.4 527.8 929.6 527.8C1088.9 527.8 1088.9 327.8 1248.1 327.8C1407.4 327.8 1407.4 527.8 1566.6 527.8C1725.8 527.8 1725.9 327.8 1885.1 327.8" stroke="#CBCBCB" stroke-opacity="0.5" stroke-width="1.5" stroke-miterlimit="10"/>
<path d="M-25.9 315.8C133.4 315.8 133.4 515.8 292.6 515.8C451.9 515.8 451.9 315.8 611.1 315.8C770.4 315.8 770.4 515.8 929.6 515.8C1088.9 515.8 1088.9 315.8 1248.1 315.8C1407.4 315.8 1407.4 515.8 1566.6 515.8C1725.8 515.8 1725.9 315.8 1885.1 315.8" stroke="#CBCBCB" stroke-opacity="0.5" stroke-width="1.5" stroke-miterlimit="10"/>
<path d="M-25.9 303.8C133.4 303.8 133.4 503.8 292.6 503.8C451.9 503.8 451.9 303.8 611.1 303.8C770.4 303.8 770.4 503.8 929.6 503.8C1088.9 503.8 1088.9 303.8 1248.1 303.8C1407.4 303.8 1407.4 503.8 1566.6 503.8C1725.8 503.8 1725.9 303.8 1885.1 303.8" stroke="#CBCBCB" stroke-opacity="0.5" stroke-width="1.5" stroke-miterlimit="10"/>
<path d="M-25.9 291.8C133.4 291.8 133.4 491.8 292.6 491.8C451.9 491.8 451.9 291.8 611.1 291.8C770.4 291.8 770.4 491.8 929.6 491.8C1088.9 491.8 1088.9 291.8 1248.1 291.8C1407.4 291.8 1407.4 491.8 1566.6 491.8C1725.8 491.8 1725.9 291.8 1885.1 291.8" stroke="#CBCBCB" stroke-opacity="0.5" stroke-width="1.5" stroke-miterlimit="10"/>
<path d="M-25.9 279.8C133.4 279.8 133.4 479.8 292.6 479.8C451.9 479.8 451.9 279.8 611.1 279.8C770.4 279.8 770.4 479.8 929.6 479.8C1088.9 479.8 1088.9 279.8 1248.1 279.8C1407.4 279.8 1407.4 479.8 1566.6 479.8C1725.8 479.8 1725.9 279.8 1885.1 279.8" stroke="#CBCBCB" stroke-opacity="0.5" stroke-width="1.5" stroke-miterlimit="10"/>
<path d="M-26 267.8C133.3 267.8 133.3 467.8 292.5 467.8C451.8 467.8 451.8 267.8 611 267.8C770.3 267.8 770.3 467.8 929.5 467.8C1088.8 467.8 1088.8 267.8 1248 267.8C1407.3 267.8 1407.3 467.8 1566.5 467.8C1725.7 467.8 1725.8 267.8 1885 267.8" stroke="#CBCBCB" stroke-opacity="0.5" stroke-width="1.5" stroke-miterlimit="10"/>
<path d="M-26 255.8C133.3 255.8 133.3 455.8 292.5 455.8C451.8 455.8 451.8 255.8 611 255.8C770.3 255.8 770.3 455.8 929.5 455.8C1088.8 455.8 1088.8 255.8 1248 255.8C1407.3 255.8 1407.3 455.8 1566.5 455.8C1725.7 455.8 1725.8 255.8 1885 255.8" stroke="#CBCBCB" stroke-opacity="0.5" stroke-width="1.5" stroke-miterlimit="10"/>
<path d="M-26 243.8C133.3 243.8 133.3 443.8 292.5 443.8C451.8 443.8 451.8 243.8 611 243.8C770.3 243.8 770.3 443.8 929.5 443.8C1088.8 443.8 1088.8 243.8 1248 243.8C1407.3 243.8 1407.3 443.8 1566.5 443.8C1725.7 443.8 1725.8 243.8 1885 243.8" stroke="#CBCBCB" stroke-opacity="0.5" stroke-width="1.5" stroke-miterlimit="10"/>
<path d="M-26 231.7C133.3 231.7 133.3 431.7 292.5 431.7C451.8 431.7 451.8 231.7 611 231.7C770.3 231.7 770.3 431.7 929.5 431.7C1088.8 431.7 1088.8 231.7 1248 231.7C1407.3 231.7 1407.3 431.7 1566.5 431.7C1725.7 431.7 1725.8 231.7 1885 231.7" stroke="#CBCBCB" stroke-opacity="0.5" stroke-width="1.5" stroke-miterlimit="10"/>
<path d="M-26 219.7C133.3 219.7 133.3 419.7 292.5 419.7C451.8 419.7 451.8 219.7 611 219.7C770.3 219.7 770.3 419.7 929.5 419.7C1088.8 419.7 1088.8 219.7 1248 219.7C1407.3 219.7 1407.3 419.7 1566.5 419.7C1725.7 419.7 1725.8 219.7 1885 219.7" stroke="#CBCBCB" stroke-opacity="0.5" stroke-width="1.5" stroke-miterlimit="10"/>
<path d="M-26 207.7C133.3 207.7 133.3 407.7 292.5 407.7C451.8 407.7 451.8 207.7 611 207.7C770.3 207.7 770.3 407.7 929.5 407.7C1088.8 407.7 1088.8 207.7 1248 207.7C1407.3 207.7 1407.3 407.7 1566.5 407.7C1725.7 407.7 1725.8 207.7 1885 207.7" stroke="#CBCBCB" stroke-opacity="0.5" stroke-width="1.5" stroke-miterlimit="10"/>
<path d="M-26.1 195.7C133.2 195.7 133.2 395.7 292.4 395.7C451.7 395.7 451.7 195.7 610.9 195.7C770.2 195.7 770.2 395.7 929.4 395.7C1088.7 395.7 1088.7 195.7 1247.9 195.7C1407.2 195.7 1407.2 395.7 1566.4 395.7C1725.6 395.7 1725.7 195.7 1884.9 195.7" stroke="#CBCBCB" stroke-opacity="0.5" stroke-width="1.5" stroke-miterlimit="10"/>
<path d="M-26.1 183.7C133.2 183.7 133.2 383.7 292.4 383.7C451.7 383.7 451.7 183.7 610.9 183.7C770.2 183.7 770.2 383.7 929.4 383.7C1088.7 383.7 1088.7 183.7 1247.9 183.7C1407.2 183.7 1407.2 383.7 1566.4 383.7C1725.6 383.7 1725.7 183.7 1884.9 183.7" stroke="#CBCBCB" stroke-opacity="0.5" stroke-width="1.5" stroke-miterlimit="10"/>
<path d="M-26.1 171.7C133.2 171.7 133.2 371.7 292.4 371.7C451.7 371.7 451.7 171.7 610.9 171.7C770.2 171.7 770.2 371.7 929.4 371.7C1088.7 371.7 1088.7 171.7 1247.9 171.7C1407.2 171.7 1407.2 371.7 1566.4 371.7C1725.6 371.7 1725.7 171.7 1884.9 171.7" stroke="#CBCBCB" stroke-opacity="0.5" stroke-width="1.5" stroke-miterlimit="10"/>
<path d="M-26.1 159.7C133.2 159.7 133.2 359.7 292.4 359.7C451.7 359.7 451.7 159.7 610.9 159.7C770.2 159.7 770.2 359.7 929.4 359.7C1088.7 359.7 1088.7 159.7 1247.9 159.7C1407.2 159.7 1407.2 359.7 1566.4 359.7C1725.6 359.7 1725.7 159.7 1884.9 159.7" stroke="#CBCBCB" stroke-opacity="0.5" stroke-width="1.5" stroke-miterlimit="10"/>
<path d="M-26.1 147.7C133.2 147.7 133.2 347.7 292.4 347.7C451.7 347.7 451.7 147.7 610.9 147.7C770.2 147.7 770.2 347.7 929.4 347.7C1088.7 347.7 1088.7 147.7 1247.9 147.7C1407.2 147.7 1407.2 347.7 1566.4 347.7C1725.6 347.7 1725.7 147.7 1884.9 147.7" stroke="#CBCBCB" stroke-opacity="0.5" stroke-width="1.5" stroke-miterlimit="10"/>
<path d="M-26.1 135.7C133.2 135.7 133.2 335.7 292.4 335.7C451.7 335.7 451.7 135.7 610.9 135.7C770.2 135.7 770.2 335.7 929.4 335.7C1088.7 335.7 1088.7 135.7 1247.9 135.7C1407.2 135.7 1407.2 335.7 1566.4 335.7C1725.6 335.7 1725.7 135.7 1884.9 135.7" stroke="#CBCBCB" stroke-opacity="0.5" stroke-width="1.5" stroke-miterlimit="10"/>
<path d="M-26.2 123.7C133.1 123.7 133.1 323.7 292.3 323.7C451.6 323.7 451.6 123.7 610.8 123.7C770.1 123.7 770.1 323.7 929.3 323.7C1088.6 323.7 1088.6 123.7 1247.8 123.7C1407.1 123.7 1407.1 323.7 1566.3 323.7C1725.5 323.7 1725.6 123.7 1884.8 123.7" stroke="#CBCBCB" stroke-opacity="0.5" stroke-width="1.5" stroke-miterlimit="10"/>
<path d="M-26.2 111.7C133.1 111.7 133.1 311.7 292.3 311.7C451.6 311.7 451.6 111.7 610.8 111.7C770.1 111.7 770.1 311.7 929.3 311.7C1088.6 311.7 1088.6 111.7 1247.8 111.7C1407.1 111.7 1407.1 311.7 1566.3 311.7C1725.5 311.7 1725.6 111.7 1884.8 111.7" stroke="#CBCBCB" stroke-opacity="0.5" stroke-width="1.5" stroke-miterlimit="10"/>
<path d="M-26.2 99.7C133.1 99.7 133.1 299.7 292.3 299.7C451.6 299.7 451.6 99.7 610.8 99.7C770.1 99.7 770.1 299.7 929.3 299.7C1088.6 299.7 1088.6 99.7 1247.8 99.7C1407.1 99.7 1407.1 299.7 1566.3 299.7C1725.5 299.7 1725.6 99.7 1884.8 99.7" stroke="#CBCBCB" stroke-opacity="0.5" stroke-width="1.5" stroke-miterlimit="10"/>
<path d="M-26.2 87.6C133.1 87.6 133.1 287.6 292.3 287.6C451.6 287.6 451.6 87.6 610.8 87.6C770.1 87.6 770.1 287.6 929.3 287.6C1088.6 287.6 1088.6 87.6 1247.8 87.6C1407.1 87.6 1407.1 287.6 1566.3 287.6C1725.5 287.6 1725.6 87.6 1884.8 87.6" stroke="#CBCBCB" stroke-opacity="0.5" stroke-width="1.5" stroke-miterlimit="10"/>
<path d="M-26.2 75.6C133.1 75.6 133.1 275.6 292.3 275.6C451.6 275.6 451.6 75.6 610.8 75.6C770.1 75.6 770.1 275.6 929.3 275.6C1088.6 275.6 1088.6 75.6 1247.8 75.6C1407.1 75.6 1407.1 275.6 1566.3 275.6C1725.5 275.6 1725.6 75.6 1884.8 75.6" stroke="#CBCBCB" stroke-opacity="0.5" stroke-width="1.5" stroke-miterlimit="10"/>
<path d="M-26.2 63.6C133.1 63.6 133.1 263.6 292.3 263.6C451.6 263.6 451.6 63.6 610.8 63.6C770.1 63.6 770.1 263.6 929.3 263.6C1088.6 263.6 1088.6 63.6 1247.8 63.6C1407.1 63.6 1407.1 263.6 1566.3 263.6C1725.5 263.6 1725.6 63.6 1884.8 63.6" stroke="#CBCBCB" stroke-opacity="0.5" stroke-width="1.5" stroke-miterlimit="10"/>
<path d="M-26.2999 51.6C133 51.6 133 251.6 292.2 251.6C451.5 251.6 451.5 51.6 610.7 51.6C770 51.6 770 251.6 929.2 251.6C1088.5 251.6 1088.5 51.6 1247.7 51.6C1407 51.6 1407 251.6 1566.2 251.6C1725.4 251.6 1725.5 51.6 1884.7 51.6" stroke="#CBCBCB" stroke-opacity="0.5" stroke-width="1.5" stroke-miterlimit="10"/>
<path d="M-26.2999 39.6C133 39.6 133 239.6 292.2 239.6C451.5 239.6 451.5 39.6 610.7 39.6C770 39.6 770 239.6 929.2 239.6C1088.5 239.6 1088.5 39.6 1247.7 39.6C1407 39.6 1407 239.6 1566.2 239.6C1725.4 239.6 1725.5 39.6 1884.7 39.6" stroke="#CBCBCB" stroke-opacity="0.5" stroke-width="1.5" stroke-miterlimit="10"/>
<path d="M-26.2999 27.6C133 27.6 133 227.6 292.2 227.6C451.5 227.6 451.5 27.6 610.7 27.6C770 27.6 770 227.6 929.2 227.6C1088.5 227.6 1088.5 27.6 1247.7 27.6C1407 27.6 1407 227.6 1566.2 227.6C1725.4 227.6 1725.5 27.6 1884.7 27.6" stroke="#CBCBCB" stroke-opacity="0.5" stroke-width="1.5" stroke-miterlimit="10"/>
<path d="M-26.2999 15.6C133 15.6 133 215.6 292.2 215.6C451.5 215.6 451.5 15.6 610.7 15.6C770 15.6 770 215.6 929.2 215.6C1088.5 215.6 1088.5 15.6 1247.7 15.6C1407 15.6 1407 215.6 1566.2 215.6C1725.4 215.6 1725.5 15.6 1884.7 15.6" stroke="#CBCBCB" stroke-opacity="0.5" stroke-width="1.5" stroke-miterlimit="10"/>
<path d="M-26.2999 3.60001C133 3.60001 133 203.6 292.2 203.6C451.5 203.6 451.5 3.60001 610.7 3.60001C770 3.60001 770 203.6 929.2 203.6C1088.5 203.6 1088.5 3.60001 1247.7 3.60001C1407 3.60001 1407 203.6 1566.2 203.6C1725.4 203.6 1725.5 3.60001 1884.7 3.60001" stroke="#CBCBCB" stroke-opacity="0.5" stroke-width="1.5" stroke-miterlimit="10"/>
<path d="M-26.4 -8.39999C132.9 -8.39999 132.9 191.6 292.1 191.6C451.4 191.6 451.4 -8.39999 610.6 -8.39999C769.9 -8.39999 769.9 191.6 929.1 191.6C1088.4 191.6 1088.4 -8.39999 1247.6 -8.39999C1406.9 -8.39999 1406.9 191.6 1566.1 191.6C1725.3 191.6 1725.4 -8.39999 1884.6 -8.39999" stroke="#CBCBCB" stroke-opacity="0.5" stroke-width="1.5" stroke-miterlimit="10"/>
<path d="M-26.4 -20.4C132.9 -20.4 132.9 179.6 292.1 179.6C451.4 179.6 451.4 -20.4 610.6 -20.4C769.9 -20.4 769.9 179.6 929.1 179.6C1088.4 179.6 1088.4 -20.4 1247.6 -20.4C1406.9 -20.4 1406.9 179.6 1566.1 179.6C1725.3 179.6 1725.4 -20.4 1884.6 -20.4" stroke="#CBCBCB" stroke-opacity="0.5" stroke-width="1.5" stroke-miterlimit="10"/>
<path d="M-26.4 -32.4C132.9 -32.4 132.9 167.6 292.1 167.6C451.4 167.6 451.4 -32.4 610.6 -32.4C769.9 -32.4 769.9 167.6 929.1 167.6C1088.4 167.6 1088.4 -32.4 1247.6 -32.4C1406.9 -32.4 1406.9 167.6 1566.1 167.6C1725.3 167.6 1725.4 -32.4 1884.6 -32.4" stroke="#CBCBCB" stroke-opacity="0.5" stroke-width="1.5" stroke-miterlimit="10"/>
<path d="M-26.4 -44.4C132.9 -44.4 132.9 155.6 292.1 155.6C451.4 155.6 451.4 -44.4 610.6 -44.4C769.9 -44.4 769.9 155.6 929.1 155.6C1088.4 155.6 1088.4 -44.4 1247.6 -44.4C1406.9 -44.4 1406.9 155.6 1566.1 155.6C1725.3 155.6 1725.4 -44.4 1884.6 -44.4" stroke="#CBCBCB" stroke-opacity="0.5" stroke-width="1.5" stroke-miterlimit="10"/>
<path d="M-26.4 -56.4C132.9 -56.4 132.9 143.6 292.1 143.6C451.4 143.6 451.4 -56.4 610.6 -56.4C769.9 -56.4 769.9 143.6 929.1 143.6C1088.4 143.6 1088.4 -56.4 1247.6 -56.4C1406.9 -56.4 1406.9 143.6 1566.1 143.6C1725.3 143.6 1725.4 -56.4 1884.6 -56.4" stroke="#CBCBCB" stroke-opacity="0.5" stroke-width="1.5" stroke-miterlimit="10"/>
<path d="M-26.4 -68.5C132.9 -68.5 132.9 131.5 292.1 131.5C451.4 131.5 451.4 -68.5 610.6 -68.5C769.9 -68.5 769.9 131.5 929.1 131.5C1088.4 131.5 1088.4 -68.5 1247.6 -68.5C1406.9 -68.5 1406.9 131.5 1566.1 131.5C1725.3 131.5 1725.4 -68.5 1884.6 -68.5" stroke="#CBCBCB" stroke-opacity="0.5" stroke-width="1.5" stroke-miterlimit="10"/>
<path d="M-26.5 -80.5C132.8 -80.5 132.8 119.5 292 119.5C451.3 119.5 451.3 -80.5 610.5 -80.5C769.8 -80.5 769.8 119.5 929 119.5C1088.3 119.5 1088.3 -80.5 1247.5 -80.5C1406.8 -80.5 1406.8 119.5 1566 119.5C1725.2 119.5 1725.3 -80.5 1884.5 -80.5" stroke="#CBCBCB" stroke-opacity="0.5" stroke-width="1.5" stroke-miterlimit="10"/>
<path d="M-26.5 -92.5C132.8 -92.5 132.8 107.5 292 107.5C451.3 107.5 451.3 -92.5 610.5 -92.5C769.8 -92.5 769.8 107.5 929 107.5C1088.3 107.5 1088.3 -92.5 1247.5 -92.5C1406.8 -92.5 1406.8 107.5 1566 107.5C1725.2 107.5 1725.3 -92.5 1884.5 -92.5" stroke="#CBCBCB" stroke-opacity="0.5" stroke-width="1.5" stroke-miterlimit="10"/>
<path d="M-26.5 -104.5C132.8 -104.5 132.8 95.5 292 95.5C451.3 95.5 451.3 -104.5 610.5 -104.5C769.8 -104.5 769.8 95.5 929 95.5C1088.3 95.5 1088.3 -104.5 1247.5 -104.5C1406.8 -104.5 1406.8 95.5 1566 95.5C1725.2 95.5 1725.3 -104.5 1884.5 -104.5" stroke="#CBCBCB" stroke-opacity="0.5" stroke-width="1.5" stroke-miterlimit="10"/>
<path d="M-26.5 -116.5C132.8 -116.5 132.8 83.5 292 83.5C451.3 83.5 451.3 -116.5 610.5 -116.5C769.8 -116.5 769.8 83.5 929 83.5C1088.3 83.5 1088.3 -116.5 1247.5 -116.5C1406.8 -116.5 1406.8 83.5 1566 83.5C1725.2 83.5 1725.3 -116.5 1884.5 -116.5" stroke="#CBCBCB" stroke-opacity="0.5" stroke-width="1.5" stroke-miterlimit="10"/>
<path d="M-26.5 -128.5C132.8 -128.5 132.8 71.5 292 71.5C451.3 71.5 451.3 -128.5 610.5 -128.5C769.8 -128.5 769.8 71.5 929 71.5C1088.3 71.5 1088.3 -128.5 1247.5 -128.5C1406.8 -128.5 1406.8 71.5 1566 71.5C1725.2 71.5 1725.3 -128.5 1884.5 -128.5" stroke="#CBCBCB" stroke-opacity="0.5" stroke-width="1.5" stroke-miterlimit="10"/>
<path d="M-26.5 -140.5C132.8 -140.5 132.8 59.5 292 59.5C451.3 59.5 451.3 -140.5 610.5 -140.5C769.8 -140.5 769.8 59.5 929 59.5C1088.3 59.5 1088.3 -140.5 1247.5 -140.5C1406.8 -140.5 1406.8 59.5 1566 59.5C1725.2 59.5 1725.3 -140.5 1884.5 -140.5" stroke="#CBCBCB" stroke-opacity="0.5" stroke-width="1.5" stroke-miterlimit="10"/>
<path d="M-26.6 -152.5C132.7 -152.5 132.7 47.5 291.9 47.5C451.2 47.5 451.2 -152.5 610.4 -152.5C769.7 -152.5 769.7 47.5 928.9 47.5C1088.2 47.5 1088.2 -152.5 1247.4 -152.5C1406.7 -152.5 1406.7 47.5 1565.9 47.5C1725.1 47.5 1725.2 -152.5 1884.4 -152.5" stroke="#CBCBCB" stroke-opacity="0.5" stroke-width="1.5" stroke-miterlimit="10"/>
<path d="M-26.6 -164.5C132.7 -164.5 132.7 35.5 291.9 35.5C451.2 35.5 451.2 -164.5 610.4 -164.5C769.7 -164.5 769.7 35.5 928.9 35.5C1088.2 35.5 1088.2 -164.5 1247.4 -164.5C1406.7 -164.5 1406.7 35.5 1565.9 35.5C1725.1 35.5 1725.2 -164.5 1884.4 -164.5" stroke="#CBCBCB" stroke-opacity="0.5" stroke-width="1.5" stroke-miterlimit="10"/>
<path d="M-26.6 -176.5C132.7 -176.5 132.7 23.5 291.9 23.5C451.2 23.5 451.2 -176.5 610.4 -176.5C769.7 -176.5 769.7 23.5 928.9 23.5C1088.2 23.5 1088.2 -176.5 1247.4 -176.5C1406.7 -176.5 1406.7 23.5 1565.9 23.5C1725.1 23.5 1725.2 -176.5 1884.4 -176.5" stroke="#CBCBCB" stroke-opacity="0.5" stroke-width="1.5" stroke-miterlimit="10"/>
<path d="M-26.6 -188.5C132.7 -188.5 132.7 11.5 291.9 11.5C451.2 11.5 451.2 -188.5 610.4 -188.5C769.7 -188.5 769.7 11.5 928.9 11.5C1088.2 11.5 1088.2 -188.5 1247.4 -188.5C1406.7 -188.5 1406.7 11.5 1565.9 11.5C1725.1 11.5 1725.2 -188.5 1884.4 -188.5" stroke="#CBCBCB" stroke-opacity="0.5" stroke-width="1.5" stroke-miterlimit="10"/>
</g>
</g>
<defs>
<linearGradient id="paint0_linear_1_3" x1="1440" y1="-0.000119301" x2="-1.4501e-05" y2="1063" gradientUnits="userSpaceOnUse">
<stop stop-color="#EBFFFB"/>
<stop offset="0.315469" stop-color="#F1F1FF"/>
<stop offset="0.552167" stop-color="#FFF4FD"/>
<stop offset="0.767016" stop-color="#FFF1EA"/>
<stop offset="0.97812" stop-color="#FFFEE8"/>
</linearGradient>
<clipPath id="clip0_1_3">
<rect width="1440" height="1036" fill="white" transform="translate(1440 1036) rotate(-180)"/>
</clipPath>
<clipPath id="clip1_1_3">
<rect width="1440" height="1036" fill="white"/>
</clipPath>
</defs>
</svg>
