<?xml version="1.0" encoding="UTF-8"?>
<!DOCTYPE svg PUBLIC "-//W3C//DTD SVG 1.1//EN" "http://www.w3.org/Graphics/SVG/1.1/DTD/svg11.dtd">
<!-- Creator: CorelDRAW 2020 (64-Bit) -->
<svg xmlns="http://www.w3.org/2000/svg" xml:space="preserve" width="63.9373mm" height="9.7789mm" version="1.1" style="shape-rendering:geometricPrecision; text-rendering:geometricPrecision; image-rendering:optimizeQuality; fill-rule:evenodd; clip-rule:evenodd"
viewBox="0 0 6379.49 975.71"
 xmlns:xlink="http://www.w3.org/1999/xlink"
 xmlns:xodm="http://www.corel.com/coreldraw/odm/2003">
 <defs>
  <style type="text/css">
   <![CDATA[
    .fil3 {fill:#0874B4}
    .fil2 {fill:#F1593A}
    .fil1 {fill:#0874B4;fill-rule:nonzero}
    .fil0 {fill:#F1593A;fill-rule:nonzero}
   ]]>
  </style>
 </defs>
 <g id="Слой_x0020_1">
  <metadata id="CorelCorpID_0Corel-Layer"/>
  <path class="fil0" d="M1882.71 325.23c20.27,0 35.05,4.36 44.35,13.09 9.29,8.73 13.94,22.11 13.94,40.13l0 62.51c0,9.01 -0.57,16.47 -1.7,22.39 -1.13,5.92 -3.09,11.13 -5.91,15.63 -2.82,4.51 -6.76,8.45 -11.83,11.83 -5.07,3.37 -11.26,6.75 -18.58,10.14l-375.09 164.73c-2.81,1.13 -4.64,2.67 -5.49,4.64 -0.85,1.98 -1.27,4.37 -1.27,7.18l0 5.92c0,3.94 2.53,5.91 7.6,5.91l392.82 0c10.14,0 15.21,5.07 15.21,15.21l0 69.28c0,10.14 -5.07,15.21 -15.21,15.21l-467.17 0c-20.27,0 -35.05,-4.22 -44.35,-12.67 -9.29,-8.45 -13.94,-21.68 -13.94,-39.7l0 -62.52c0,-17.45 2.53,-30.27 7.6,-38.43 5.07,-8.17 15.21,-15.63 30.41,-22.39l375.09 -164.73c4.5,-1.69 6.75,-5.35 6.75,-10.98l0 -5.92c0,-4.51 -2.53,-6.75 -7.6,-6.75l-392.82 0c-10.14,0 -15.21,-5.07 -15.21,-15.21l0 -69.28c0,-10.14 5.07,-15.21 15.21,-15.21l467.17 0z"/>
  <path class="fil0" d="M2472.36 325.23c37.74,0 69.55,3.23 95.47,9.71 25.9,6.49 46.6,16.62 62.09,30.41 15.49,13.8 26.61,31.54 33.37,53.23 6.75,21.68 10.14,47.72 10.14,78.14l0 273.71c0,12.39 -6.2,18.59 -18.59,18.59l-82.79 0c-12.39,0 -18.59,-6.2 -18.59,-18.59l0 -244.98c0,-17.46 -1.13,-32.25 -3.37,-44.35 -2.25,-12.11 -6.63,-21.68 -13.1,-28.73 -6.48,-7.03 -15.35,-12.1 -26.61,-15.21 -11.26,-3.09 -25.9,-4.64 -43.92,-4.64l-224.72 0c-18.02,0 -32.95,1.55 -44.77,4.64 -11.83,3.1 -21.26,8.17 -28.31,15.21 -7.03,7.04 -11.96,16.61 -14.78,28.73 -2.81,12.1 -4.23,26.89 -4.23,44.35l0 244.98c0,12.39 -6.19,18.59 -18.58,18.59l-82.8 0c-12.95,0 -19.43,-6.2 -19.43,-18.59l0 -273.71c0,-30.41 3.38,-56.45 10.14,-78.14 6.75,-21.69 17.88,-39.43 33.37,-53.23 15.5,-13.79 36.05,-23.93 61.67,-30.41 25.62,-6.48 57.59,-9.71 95.89,-9.71l242.45 0z"/>
  <path class="fil0" d="M3153.26 325.23c37.74,0 69.55,3.23 95.47,9.71 25.9,6.49 46.6,16.62 62.09,30.41 15.49,13.8 26.61,31.54 33.37,53.23 6.75,21.68 10.14,47.72 10.14,78.14l0 224.72c0,13.51 -0.99,24.64 -2.95,33.37 -1.98,8.73 -5.36,15.63 -10.14,20.69 -4.79,5.07 -11.13,8.59 -19.01,10.57 -7.89,1.97 -18.03,2.95 -30.41,2.95l-402.12 0c-24.78,0 -45.48,-2.39 -62.09,-7.18 -16.61,-4.78 -29.99,-11.96 -40.13,-21.54 -10.14,-9.57 -17.31,-21.96 -21.54,-37.17 -4.22,-15.21 -6.34,-33.23 -6.34,-54.07l0 -40.55c0,-17.46 2.12,-33.09 6.34,-46.89 4.23,-13.8 11.4,-25.48 21.54,-35.05 10.14,-9.58 23.52,-16.76 40.13,-21.54 16.61,-4.79 37.31,-7.18 62.09,-7.18l343.83 0 0 -16.05c0,-13.51 -1.42,-25.06 -4.23,-34.63 -2.81,-9.58 -7.6,-17.32 -14.36,-23.23 -6.75,-5.92 -16.05,-10.29 -27.88,-13.1 -11.82,-2.81 -27.03,-4.22 -45.62,-4.22l-353.12 0c-10.14,0 -15.21,-5.07 -15.21,-15.21l0 -70.96c0,-10.14 5.07,-15.21 15.21,-15.21l364.95 0zm55.76 370.86c9.01,0 15.35,-2.12 19.01,-6.34 3.66,-4.23 5.5,-11.69 5.5,-22.39l0 -74.34 -309.2 0c-17.45,0 -29.7,3.52 -36.75,10.57 -7.03,7.03 -10.56,17.31 -10.56,30.83l0 17.74c0,15.21 3.52,26.33 10.56,33.37 7.04,7.04 19.3,10.57 36.75,10.57l284.69 0z"/>
  <path class="fil0" d="M3546.09 155.43c12.39,0 18.59,6.2 18.59,18.58l0 334.54 155.43 0c11.83,0 21.83,-0.43 29.99,-1.27 8.17,-0.85 15.35,-2.53 21.54,-5.07 6.2,-2.53 11.68,-6.06 16.47,-10.57 4.79,-4.5 10,-10.7 15.63,-18.58l94.62 -133.48c3.38,-5.07 6.9,-8.73 10.57,-10.99 3.65,-2.24 8.58,-3.37 14.78,-3.37l95.47 0c6.19,0 10.14,2.39 11.82,7.17 1.69,4.79 0.56,10 -3.38,15.64l-108.98 149.53c-16.89,23.09 -34.35,41.11 -52.37,54.07 23.09,12.95 43.08,30.97 59.98,54.06l119.96 162.2c3.38,4.51 4.08,9.16 2.12,13.94 -1.98,4.79 -6.06,7.18 -12.25,7.18l-94.62 0c-7.32,0 -12.67,-0.85 -16.04,-2.53 -3.38,-1.69 -6.76,-4.79 -10.14,-9.29l-103.07 -141.92c-10.14,-13.52 -20.97,-22.81 -32.53,-27.88 -11.54,-5.07 -28.86,-7.6 -51.95,-7.6l-163.04 0 0 170.64c0,12.39 -6.2,18.59 -18.59,18.59l-82.79 0c-12.96,0 -19.44,-6.2 -19.44,-18.59l0 -596.42c0,-12.38 6.48,-18.58 19.44,-18.58l82.79 0z"/>
  <path class="fil1" d="M4216.85 670.75c12.39,0 18.59,6.2 18.59,18.58l0 81.1c0,12.39 -6.2,18.59 -18.59,18.59l-82.79 0c-12.96,0 -19.44,-6.2 -19.44,-18.59l0 -81.1c0,-12.38 6.48,-18.58 19.44,-18.58l82.79 0zm1961.59 -345.52c37.73,0 69.54,3.23 95.46,9.71 25.9,6.49 46.61,16.62 62.09,30.41 15.49,13.8 26.61,31.54 33.37,53.23 6.76,21.68 10.14,47.72 10.14,78.14l0 121.65c0,30.41 -3.37,56.46 -10.14,78.15 -6.75,21.68 -17.88,39.42 -33.37,53.22 -15.49,13.8 -36.19,23.8 -62.09,29.99 -25.91,6.2 -57.73,9.29 -95.46,9.29l-316.8 0 0 168.11c0,12.39 -6.19,18.58 -18.58,18.58l-82.8 0c-12.95,0 -19.43,-6.19 -19.43,-18.58l0 -460.41c0,-30.41 3.38,-56.45 10.14,-78.14 6.75,-21.69 17.88,-39.43 33.37,-53.23 15.5,-13.79 36.05,-23.93 61.67,-30.41 25.62,-6.48 57.59,-9.71 95.89,-9.71l236.54 0zm-316.8 362.41l304.97 0c18.59,0 33.79,-1.41 45.62,-4.22 11.83,-2.82 21.26,-7.89 28.31,-15.21 7.03,-7.32 11.96,-16.9 14.78,-28.73 2.81,-11.82 4.23,-26.75 4.23,-44.77l0 -75.19c0,-17.46 -1.42,-32.24 -4.23,-44.35 -2.81,-12.1 -7.74,-21.68 -14.78,-28.72 -7.04,-7.04 -16.47,-12.11 -28.31,-15.21 -11.82,-3.1 -27.03,-4.65 -45.62,-4.65l-212.88 0c-18.02,0 -32.95,1.55 -44.77,4.65 -11.83,3.09 -21.26,8.16 -28.31,15.21 -7.03,7.03 -11.96,16.61 -14.78,28.72 -2.81,12.11 -4.23,26.89 -4.23,44.35l0 168.11zm-419 -362.41c37.73,0 69.54,3.23 95.46,9.71 25.9,6.49 46.61,16.62 62.09,30.41 15.49,13.8 26.61,31.54 33.37,53.23 6.76,21.68 10.14,47.72 10.14,78.14l0 121.65c0,30.41 -3.37,56.46 -10.14,78.15 -6.75,21.68 -17.88,39.42 -33.37,53.22 -15.49,13.8 -36.19,23.8 -62.09,29.99 -25.91,6.2 -57.73,9.29 -95.46,9.29l-316.8 0 0 168.11c0,12.39 -6.19,18.58 -18.58,18.58l-82.8 0c-12.95,0 -19.43,-6.19 -19.43,-18.58l0 -460.41c0,-30.41 3.38,-56.45 10.14,-78.14 6.75,-21.69 17.88,-39.43 33.37,-53.23 15.5,-13.79 36.05,-23.93 61.67,-30.41 25.62,-6.48 57.59,-9.71 95.89,-9.71l236.54 0zm-316.8 362.41l304.97 0c18.59,0 33.79,-1.41 45.62,-4.22 11.83,-2.82 21.26,-7.89 28.31,-15.21 7.03,-7.32 11.96,-16.9 14.78,-28.73 2.81,-11.82 4.23,-26.75 4.23,-44.77l0 -75.19c0,-17.46 -1.42,-32.24 -4.23,-44.35 -2.81,-12.1 -7.74,-21.68 -14.78,-28.72 -7.04,-7.04 -16.47,-12.11 -28.31,-15.21 -11.82,-3.1 -27.03,-4.65 -45.62,-4.65l-212.88 0c-18.02,0 -32.95,1.55 -44.77,4.65 -11.83,3.09 -21.26,8.16 -28.31,15.21 -7.03,7.03 -11.96,16.61 -14.78,28.72 -2.81,12.11 -4.23,26.89 -4.23,44.35l0 168.11zm-409.72 -362.41c37.74,0 69.55,3.23 95.47,9.71 25.9,6.49 46.6,16.62 62.09,30.41 15.49,13.8 26.61,31.54 33.37,53.23 6.75,21.68 10.14,47.72 10.14,78.14l0 224.72c0,13.51 -0.99,24.64 -2.95,33.37 -1.98,8.73 -5.36,15.63 -10.14,20.69 -4.79,5.07 -11.13,8.59 -19.01,10.57 -7.89,1.97 -18.03,2.95 -30.41,2.95l-402.12 0c-24.78,0 -45.48,-2.39 -62.09,-7.18 -16.61,-4.78 -29.99,-11.96 -40.13,-21.54 -10.14,-9.57 -17.31,-21.96 -21.54,-37.17 -4.22,-15.21 -6.34,-33.23 -6.34,-54.07l0 -40.55c0,-17.46 2.12,-33.09 6.34,-46.89 4.23,-13.8 11.4,-25.48 21.54,-35.05 10.14,-9.58 23.52,-16.76 40.13,-21.54 16.61,-4.79 37.31,-7.18 62.09,-7.18l343.83 0 0 -16.05c0,-13.51 -1.42,-25.06 -4.23,-34.63 -2.81,-9.58 -7.6,-17.32 -14.36,-23.23 -6.75,-5.92 -16.05,-10.29 -27.88,-13.1 -11.82,-2.81 -27.03,-4.22 -45.62,-4.22l-353.12 0c-10.14,0 -15.21,-5.07 -15.21,-15.21l0 -70.96c0,-10.14 5.07,-15.21 15.21,-15.21l364.95 0zm55.76 370.86c9.01,0 15.35,-2.12 19.01,-6.34 3.66,-4.23 5.5,-11.69 5.5,-22.39l0 -74.34 -309.2 0c-17.45,0 -29.7,3.52 -36.75,10.57 -7.03,7.03 -10.56,17.31 -10.56,30.83l0 17.74c0,15.21 3.52,26.33 10.56,33.37 7.04,7.04 19.3,10.57 36.75,10.57l284.69 0z"/>
  <path class="fil2" d="M73.59 888.8l-38.38 0c-19.44,0 -35.2,-15.76 -35.2,-35.2l0 -106.73c25.8,44.35 49.87,92.73 73.59,141.93z"/>
  <path class="fil2" d="M278.83 888.8l-69.85 0 -6.68 -13.97c-58.96,-123.37 -117.93,-246.76 -202.3,-335.14l0 -128.26c82.64,73.35 142.68,198.99 202.71,324.62 24.74,51.78 49.49,103.57 76.12,152.76z"/>
  <path class="fil3" d="M415.84 75.38l134.17 -71.26c10.77,-5.72 23.17,-5.28 33.16,0.08l531.16 282.13c11.89,6.32 18.68,18.49 18.69,31.08l0.01 384.58c-133.78,8.63 -260.84,8.35 -349.48,-42.71l0.06 -0.1c-107.95,-62.32 -178.8,-210.58 -249.63,-358.82 -37.24,-77.93 -74.49,-155.86 -118.14,-224.98z"/>
  <path class="fil2" d="M234.71 171.6l72.78 -38.65c42.31,65.2 79.33,142.65 116.34,220.1 79.06,165.46 158.16,330.95 298.48,411.98l0.24 0c116.17,67.07 260.85,69.05 410.48,59.7l0 28.88c0,15.75 -10.37,29.1 -24.64,33.59l-20.82 1.62 -301.26 0c-41.98,-7.11 -80.28,-19.11 -113.25,-38.14l-0.24 0c-107.63,-62.13 -178.52,-210.5 -249.4,-358.82 -55.71,-116.56 -111.41,-233.13 -188.71,-320.24z"/>
  <path class="fil2" d="M29.5 280.59l93.21 -49.52c76.32,74.44 133.44,193.95 190.54,313.44 61,127.67 122.03,255.33 211.4,344.28l-104.77 0c-38.48,-61.99 -72.76,-133.72 -107.03,-205.44 -76.18,-159.42 -152.38,-318.85 -283.36,-402.76z"/>
 </g>
</svg>
