<svg width="52" height="14" viewBox="0 0 52 14" fill="none" xmlns="http://www.w3.org/2000/svg">
<g clip-path="url(#clip0_11_1247)">
<path d="M19.7629 0.289333L15.2971 11.6961H17.6957L18.6136 9.3128H23.3523L24.274 11.6961H26.655L22.2169 0.289333H19.7629ZM19.437 7.21933L20.997 3.206L22.5503 7.21933H19.437ZM29.5222 8.75467L27.5853 3.68293H25.2968L28.4163 11.6956H30.6848L33.7489 3.68293H31.4605L29.5217 8.75467H29.5222ZM36.6271 3.68293H34.4493V11.6956H36.6271V3.68293ZM35.537 3.10567C35.958 3.10567 36.3618 2.94207 36.6595 2.65085C36.9572 2.35964 37.1244 1.96467 37.1244 1.55283C37.1244 1.141 36.9572 0.746027 36.6595 0.454814C36.3618 0.163602 35.958 0 35.537 0C35.116 0 34.7122 0.163602 34.4145 0.454814C34.1168 0.746027 33.9496 1.141 33.9496 1.55283C33.9496 1.96467 34.1168 2.35964 34.4145 2.65085C34.7122 2.94207 35.116 3.10567 35.537 3.10567ZM40.9431 1.54467H38.7715V3.66893H37.4977V5.6H38.7715V9.00527C38.7715 10.9363 39.8592 11.767 41.3915 11.767C41.9085 11.7736 42.4212 11.6755 42.8976 11.4791V9.49387C42.6376 9.5872 42.3633 9.63573 42.0866 9.63853C41.4211 9.63853 40.9416 9.3856 40.9416 8.51853V5.60047H42.8976V3.68853H40.9431V1.54513V1.54467ZM47.476 3.53733C46.9185 3.53709 46.3665 3.64425 45.8514 3.8527C45.3363 4.06115 44.8682 4.36681 44.4738 4.75222C44.0795 5.13764 43.7666 5.59526 43.553 6.09895C43.3395 6.60265 43.2294 7.14257 43.2292 7.68787C43.2289 8.23317 43.3385 8.77318 43.5516 9.27706C43.7647 9.78095 44.0771 10.2388 44.4711 10.6246C44.8651 11.0104 45.3329 11.3164 45.8479 11.5253C46.3628 11.7342 46.9147 11.8419 47.4722 11.8421C48.5902 11.831 49.6585 11.389 50.4452 10.6119C51.232 9.8348 51.6735 8.78548 51.674 7.69181C51.6745 6.59815 51.2339 5.54844 50.4479 4.77068C49.6619 3.99291 48.594 3.54988 47.476 3.5378V3.53733ZM47.476 9.71787C47.0671 9.71824 46.6672 9.59996 46.327 9.378C45.9869 9.15603 45.7216 8.84036 45.5649 8.47091C45.4081 8.10145 45.3669 7.69483 45.4465 7.30246C45.526 6.9101 45.7227 6.54962 46.0117 6.26664C46.3008 5.98367 46.6691 5.7909 47.0701 5.71272C47.4711 5.63455 47.8869 5.67449 48.2647 5.82748C48.6425 5.98047 48.9655 6.23964 49.1927 6.57221C49.4199 6.90477 49.5412 7.29579 49.5412 7.6958C49.5403 8.23077 49.3223 8.74349 48.935 9.1212C48.5477 9.49891 48.0229 9.71068 47.476 9.70993V9.71787Z" fill="#fff"/>
<path d="M5.0545 3.98999C5.93056 3.98999 6.64074 3.29529 6.64074 2.43832C6.64074 1.58136 5.93056 0.886658 5.0545 0.886658C4.17845 0.886658 3.46826 1.58136 3.46826 2.43832C3.46826 3.29529 4.17845 3.98999 5.0545 3.98999Z" fill="#965EEB"/>
<path d="M10.6123 6.75267C12.5185 6.75267 14.0639 5.24103 14.0639 3.37633C14.0639 1.51164 12.5185 0 10.6123 0C8.70605 0 7.16074 1.51164 7.16074 3.37633C7.16074 5.24103 8.70605 6.75267 10.6123 6.75267Z" fill="#00AAFF"/>
<path d="M4.24587 12.8333C6.5908 12.8333 8.49174 10.9738 8.49174 8.68001C8.49174 6.38618 6.5908 4.52667 4.24587 4.52667C1.90094 4.52667 0 6.38618 0 8.68001C0 10.9738 1.90094 12.8333 4.24587 12.8333Z" fill="#04E061"/>
<path d="M11.6046 12.3107C13.0208 12.3107 14.1688 11.1877 14.1688 9.80234C14.1688 8.41703 13.0208 7.29401 11.6046 7.29401C10.1884 7.29401 9.04037 8.41703 9.04037 9.80234C9.04037 11.1877 10.1884 12.3107 11.6046 12.3107Z" fill="#FF4053"/>
</g>
<defs>
<clipPath id="clip0_11_1247">
<rect width="52" height="14" fill="white"/>
</clipPath>
</defs>
</svg>
