<svg width="89" height="20" viewBox="0 0 89 20" fill="none" xmlns="http://www.w3.org/2000/svg">
<g clip-path="url(#clip0_11_1255)">
<path fill-rule="evenodd" clip-rule="evenodd" d="M17.7473 18.3395H15.7789V10.9753H17.7473C19.9398 10.9753 21.5352 12.5205 21.5352 14.6437C21.5352 16.7805 19.9398 18.3405 17.7473 18.3405M17.9559 9.60326H14.5263C14.377 9.60326 14.2579 9.73349 14.2579 9.87767V19.4381C14.2579 19.5823 14.377 19.7126 14.5263 19.7126H17.9559C20.8335 19.7126 23.1899 17.4451 23.1899 14.6437C23.1899 11.8716 20.8335 9.60326 17.9559 9.60326ZM0 0V15.7149C0 15.8842 0.100772 15.9251 0.224148 15.8051L4.97176 11.1837C5.03157 11.126 5.11185 11.0938 5.19543 11.0938C5.27902 11.0938 5.3593 11.126 5.41911 11.1837L6.88832 12.614C7.01169 12.734 7.11247 12.6935 7.11247 12.5242V11.3721C7.11247 11.2967 7.17557 11.2363 7.25185 11.2363H8.39284C8.4696 11.2363 8.53223 11.2977 8.53223 11.3721V13.9051C8.53223 14.0749 8.633 14.3116 8.75638 14.4316L10.1667 15.8051C10.2896 15.9251 10.3909 15.8842 10.3909 15.7149V0H0ZM27.0084 18.6144C26.069 18.6144 25.3236 17.806 25.3236 16.8093C25.3236 15.8419 26.069 15.0474 27.0084 15.0474C27.9479 15.0474 28.6933 15.8423 28.6933 16.8093C28.6933 17.806 27.9479 18.6144 27.0084 18.6144ZM27.0084 13.7912C25.3386 13.7912 23.9961 15.1772 23.9961 16.8093C23.9961 18.4698 25.3382 19.8563 27.0084 19.8563C28.6782 19.8563 30.0208 18.4698 30.0208 16.8093C30.0208 15.1777 28.6787 13.7907 27.0084 13.7907M38.4617 13.7912C37.3277 13.7912 36.4632 14.5563 36.2993 14.7158C35.867 14.1233 35.2407 13.7912 34.3757 13.7912C33.2271 13.7912 32.542 14.4698 32.4073 14.5995L32.243 14.1093C32.1982 14.0079 32.1238 13.9358 31.9896 13.9358H31.5719C31.4231 13.9358 31.2894 14.066 31.2894 14.2098V19.4377C31.2894 19.5819 31.4231 19.7121 31.5719 19.7121H32.4078C32.5561 19.7121 32.6903 19.5819 32.6903 19.4377V15.9144C32.7657 15.726 33.2719 15.0479 34.1671 15.0479C35.002 15.0479 35.4338 15.553 35.4338 16.4767V19.4377C35.4338 19.5819 35.5539 19.7121 35.7177 19.7121H36.5079C36.6576 19.7121 36.7918 19.5819 36.7918 19.4377V16.4484C36.7918 16.16 36.7763 15.8851 36.7471 15.7549C36.8507 15.6684 37.3734 15.0479 38.2822 15.0479C39.088 15.0479 39.5202 15.5674 39.5202 16.4767V19.4377C39.5202 19.5819 39.6398 19.7121 39.8037 19.7121H40.6386C40.8025 19.7121 40.9226 19.5819 40.9226 19.4377V16.5349C40.9226 15.033 40.2807 13.7912 38.4617 13.7912ZM45.1277 18.6144C44.1883 18.6144 43.4428 17.806 43.4428 16.8093C43.4428 15.8419 44.1883 15.0474 45.1277 15.0474C46.0676 15.0474 46.8131 15.8423 46.8131 16.8093C46.8131 17.806 46.0676 18.6144 45.1277 18.6144ZM45.1277 13.7912C43.4579 13.7912 42.1158 15.1772 42.1158 16.8093C42.1158 18.4698 43.4579 19.8563 45.1277 19.8563C46.798 19.8563 48.1401 18.4698 48.1401 16.8093C48.1401 15.1777 46.798 13.7907 45.1277 13.7907M54.1657 10.3684C54.1965 10.3149 54.2074 10.2525 54.1965 10.1919C54.1856 10.1313 54.1535 10.0764 54.1059 10.0367C53.8375 9.80512 53.2112 9.4586 52.4059 9.4586C50.9744 9.4586 49.8711 10.354 49.8711 12.1451V13.9358H49.1704C49.0056 13.9358 48.8864 14.0507 48.8864 14.2102V14.86C48.8864 15.0042 49.0056 15.1344 49.1704 15.1344H49.8711V19.4377C49.8711 19.5819 50.0053 19.7121 50.1536 19.7121H51.0337C51.183 19.7121 51.3172 19.5819 51.3172 19.4377V15.134H52.9277C53.0916 15.134 53.2107 15.0037 53.2107 14.86V14.2102C53.2107 14.0507 53.0916 13.9358 52.9282 13.9358H51.3172V12.1451C51.3172 11.1772 51.7796 10.7153 52.4356 10.7153C52.7935 10.7153 53.2258 10.9321 53.4198 11.0619C53.5686 11.1633 53.7183 11.1484 53.7932 11.0186L54.1652 10.3684H54.1657ZM56.7462 18.6144C55.8068 18.6144 55.0609 17.806 55.0609 16.8093C55.0609 15.8419 55.8068 15.0474 56.7462 15.0474C57.6857 15.0474 58.4311 15.8423 58.4311 16.8093C58.4311 17.806 57.6857 18.6144 56.7462 18.6144ZM56.7462 13.7912C55.0764 13.7912 53.7339 15.1772 53.7339 16.8093C53.7339 18.4698 55.0759 19.8563 56.7462 19.8563C58.416 19.8563 59.7586 18.4698 59.7586 16.8093C59.7586 15.1777 58.4165 13.7907 56.7462 13.7907M64.2476 13.7912C63.0549 13.7912 62.2647 14.4842 62.1597 14.5995L61.9807 14.1093C61.9664 14.0583 61.9352 14.0136 61.8921 13.9821C61.849 13.9507 61.7965 13.9344 61.7429 13.9358H61.3097C61.1614 13.9358 61.0272 14.066 61.0272 14.2098V19.4377C61.0272 19.5819 61.1614 19.7121 61.3097 19.7121H62.0857C62.3391 19.7121 62.4286 19.6251 62.4286 19.4377V15.9144C62.5034 15.7116 63.1443 15.0479 64.0838 15.0479C64.8589 15.0479 65.3213 15.553 65.3213 16.4767V19.4377C65.3213 19.5819 65.4404 19.7121 65.6043 19.7121H66.4552C66.604 19.7121 66.7378 19.5819 66.7378 19.4377V16.5349C66.7378 15.033 66.0667 13.7912 64.2476 13.7912ZM72.3311 17.7479C72.2558 17.9065 71.8235 18.6144 70.9142 18.6144C69.9596 18.6144 69.3338 17.7912 69.3338 16.8237C69.3338 15.8414 70.0336 15.0474 71.0333 15.0474C71.8093 15.0474 72.3311 15.3944 72.3311 15.3944V17.7479ZM73.4641 9.60279H72.5995C72.4498 9.60279 72.3156 9.73302 72.3156 9.87721V14.1093C72.1814 14.0656 71.6445 13.7912 70.884 13.7912C69.2293 13.7912 67.947 15.1344 67.947 16.8237C67.947 18.4842 69.1549 19.8563 70.7352 19.8563C71.9129 19.8563 72.6287 19.0479 72.6287 19.0479L72.7478 19.4665C72.7926 19.6112 72.8821 19.7116 73.0163 19.7116H73.4636C73.6134 19.7116 73.7476 19.5814 73.7476 19.4377V9.87767C73.7476 9.73302 73.6134 9.60326 73.4641 9.60326V9.60279Z" fill="#fff"/>
<mask id="mask0_11_1255" style="mask-type:alpha" maskUnits="userSpaceOnUse" x="75" y="17" width="3" height="3">
<path d="M75.2177 19.8558H77.2977V17.8419H75.2177V19.8558Z" fill="white"/>
</mask>
<g mask="url(#mask0_11_1255)">
<path fill-rule="evenodd" clip-rule="evenodd" d="M76.2499 17.8419C76.1145 17.8412 75.9804 17.867 75.8551 17.9177C75.7299 17.9685 75.6161 18.0432 75.5202 18.1375C75.4243 18.2319 75.3482 18.3441 75.2964 18.4676C75.2446 18.5911 75.218 18.7235 75.2182 18.8572C75.2182 19.407 75.6815 19.8568 76.2504 19.8568C76.8338 19.8568 77.2981 19.407 77.2981 18.8568C77.2981 18.2916 76.8338 17.8428 76.2504 17.8428" fill="#fff"/>
</g>
<path fill-rule="evenodd" clip-rule="evenodd" d="M81.3851 13.7711C80.2926 13.7711 79.7393 14.467 79.6343 14.6116L79.4695 14.1186C79.4403 14.0032 79.3202 13.9158 79.2156 13.9158H78.7819C78.6313 13.9158 78.4975 14.047 78.4975 14.1916V19.4367C78.4975 19.5809 78.6317 19.7111 78.7819 19.7111H79.4991C79.7393 19.7111 79.9036 19.6828 79.9036 19.4367V15.7558C79.9634 15.6544 80.3821 15.0465 81.2499 15.0465C81.4449 15.0465 81.669 15.1046 81.7585 15.1479C81.8932 15.206 82.0434 15.1763 82.1178 15.0172L82.4771 14.3074C82.6419 13.9158 81.9539 13.7711 81.3846 13.7711" fill="#fff"/>
<path fill-rule="evenodd" clip-rule="evenodd" d="M88.4476 13.9163H87.6692C87.4602 13.9163 87.3401 13.9595 87.3401 14.1916V17.6544C87.2953 17.9149 86.742 18.6107 85.8596 18.6107C85.0967 18.6107 84.6324 18.1037 84.6324 17.1614V14.1916C84.6294 14.1188 84.5985 14.0497 84.5458 13.9986C84.4932 13.9474 84.4228 13.918 84.3489 13.9163H83.4952C83.3459 13.9163 83.2108 14.0465 83.2108 14.1916V17.1182C83.2108 18.6251 83.8399 19.8563 85.6349 19.8563C86.8466 19.8563 87.4752 19.1754 87.6104 19.0595L87.7596 19.4795C87.8044 19.6102 87.8788 19.7116 88.029 19.7116H88.4476C88.5969 19.7116 88.7321 19.5814 88.7321 19.4363V14.1916C88.7321 14.0461 88.5969 13.9163 88.4476 13.9163Z" fill="#fff"/>
</g>
<defs>
<clipPath id="clip0_11_1255">
<rect width="89" height="20" fill="white"/>
</clipPath>
</defs>
</svg>
