<svg width="89" height="20" xmlns="http://www.w3.org/2000/svg" viewBox="0 0 158 49">
<path d="M39.52 20.788H28.453v27.088h5.96V39.75h4.526c6.077 0 10.952-3.252 10.952-9.52 0-5.61-3.908-9.442-10.371-9.442zm-.387 13.66h-4.72v-8.281h4.604c2.98 0 4.837 1.432 4.837 4.102 0 2.399-1.741 4.18-4.72 4.18zM24.99 20.788h-7.52L6.758 31.65V20.788H1v27.084h5.757V36.457L17.17 47.876h7.903l-12.657-13.89L24.99 20.788zm82.02-19.664l-.002.001-.002-.001-.003.003-20.536 12.954 5.197 3.294 15.344-9.685 15.344 9.685 5.214-3.29-20.554-12.958-.002-.003zm38.225 19.664h-5.658l-11.75 27.084h6.458l2.118-5.117h11.87l2.113 5.117H157l-11.765-27.084zm-6.673 16.723l3.774-9.205 3.78 9.205h-7.554zm-19.239 5.208h-9.313V27.69h-6.03v15.03h-9.314V20.79h-6.03v27.08h36.718V20.788h-6.03v21.93zM65.185 30.802H59.7V20.788h-5.96v27.088h11.057c6.347 0 10.294-3.34 10.294-8.661 0-5.034-3.195-8.445-9.906-8.413zm-.465 11.696H59.7v-6.455h4.982c2.98 0 4.488.84 4.488 3.21 0 2.334-1.509 3.245-4.45 3.245zm13.441 5.378h5.958V20.788h-5.958v27.088z" fill="#fff"></path>
</svg>