<svg width="100" height="16" viewBox="0 0 100 16" fill="none" xmlns="http://www.w3.org/2000/svg">
<g clip-path="url(#clip0_12_1275)">
<path d="M11.4476 2.86224H3.67963V12.2654H11.4476V2.86224V2.86224Z" fill="white"/>
<path d="M7.60277 0C3.4048 0 0 3.40622 0 7.59328C0 11.7927 3.4048 15.1894 7.60277 15.1894C11.7846 15.1894 15.1894 11.7927 15.1894 7.59328C15.1894 3.4067 11.7846 0 7.60277 0ZM8.58533 12.1064V4.29148H7.8871C6.60454 4.29148 5.93146 4.94178 5.93146 5.90251C5.93146 6.99662 6.39616 7.50119 7.35642 8.15149L8.14579 8.68739L5.86548 12.1064H4.16949L6.21579 9.04908C5.03766 8.20512 4.37787 7.38395 4.37787 5.99459C4.37787 4.25018 5.58116 3.06683 7.87428 3.06683H10.1517V12.1064H8.58533V12.1064Z" fill="#FC3F1D"/>
</g>
<g clip-path="url(#clip1_12_1275)">
<path d="M20.6641 4.37335V13.3351H22.2319V9.44234H25.1625V13.3346H26.7303V4.37335H25.1625V8.22861H22.2319V4.37335H20.6641ZM33.0178 12.8946V11.6462C32.5374 11.9671 31.7348 12.25 30.9819 12.25C29.8536 12.25 29.4269 11.7217 29.3605 10.6404H33.0809V9.82872C33.0809 7.5712 32.0822 6.72249 30.5429 6.72249C28.6618 6.72249 27.767 8.15314 27.767 10.1116C27.767 12.3663 28.883 13.4637 30.8524 13.4637C31.8387 13.4637 32.5626 13.206 33.0178 12.8946V12.8946ZM30.5144 7.93337C31.2791 7.93337 31.5131 8.56515 31.5131 9.37636V9.50547H29.3605C29.4018 8.47402 29.7782 7.93337 30.5139 7.93337H30.5144ZM39.8464 12.1218H39.16V6.85112H34.662V7.40459C34.662 8.98951 34.5609 11.0396 34.0141 12.1214H33.5371V14.8161H34.9625V13.3351H38.4209V14.8161H39.8464V12.1214V12.1218ZM37.6173 12.1218H35.4396C35.8691 11.144 35.9864 9.37684 35.9864 8.25424V8.06153H37.6173V12.1209V12.1218ZM43.32 13.3351C44.8503 13.3351 45.7574 12.6905 45.7574 11.4516C45.7574 10.6024 45.2391 10.1121 44.3695 9.95783C45.0715 9.76322 45.5111 9.27241 45.5111 8.4987C45.5111 7.39225 44.7711 6.8516 43.3456 6.8516H40.6239V13.3351H43.32ZM43.1653 7.98321C43.7216 7.98321 44.0349 8.22861 44.0349 8.73176C44.0349 9.18459 43.6964 9.45468 43.1116 9.45468H42.1286V7.98321H43.1653ZM43.1904 10.574C43.8512 10.574 44.2024 10.8065 44.2024 11.3477C44.2024 11.9548 43.8132 12.1997 43.1904 12.1997H42.1286V10.574H43.1904V10.574ZM46.7946 6.85112V13.3351H48.1664L50.5278 9.32605V13.3351H52.0164V6.85112H50.6446L48.2831 10.8602V6.85112H46.7946ZM54.4287 13.3351L56.4769 10.1501V13.3351H58.0167V10.1501L60.0649 13.3351H61.8164L59.5466 9.8292L61.516 6.85112H59.9605L58.0167 9.84154V6.85112H56.4769V9.84154L54.5331 6.85112H52.9363L54.947 9.89185L52.7313 13.3351H54.4287V13.3351ZM62.5275 6.85112V13.3351H63.9026L66.2607 9.32605V13.3351H67.7531V6.85112H66.378L64.0194 10.8602V6.85112H62.5275V6.85112ZM74.6064 13.3351H76.1111L76.0859 6.85112H73.9741L72.561 11.1687L71.2903 6.85112H69.0489V13.3351H70.3576V8.48636L71.7707 13.3351H73.0257L74.6064 8.48636V13.3351V13.3351ZM80.0247 6.72249C78.3273 6.72249 77.1477 7.92008 77.1477 10.0993C77.1477 12.2661 78.3273 13.4637 80.0247 13.4637C81.7221 13.4637 82.9012 12.2661 82.9012 10.0869C82.9012 7.92008 81.7221 6.72249 80.0247 6.72249V6.72249ZM80.0247 12.25C79.1713 12.25 78.7412 11.5931 78.7412 10.0998C78.7412 8.59031 79.1713 7.93289 80.0247 7.93289C80.8815 7.93289 81.3082 8.58983 81.3082 10.0869C81.3082 11.5931 80.8815 12.25 80.0247 12.25ZM86.7389 13.4637C87.4533 13.4637 87.956 13.3351 88.3324 13.065V11.8133C87.9436 12.0839 87.4789 12.25 86.8305 12.25C85.7274 12.25 85.2755 11.4013 85.2755 10.0585C85.2755 8.65297 85.8318 7.93289 86.8433 7.93289C87.4376 7.93289 88.0224 8.14032 88.3324 8.33209V7.03055C88.0096 6.85112 87.4376 6.72201 86.6758 6.72201C84.7031 6.72201 83.682 8.12466 83.682 10.0993C83.682 12.2661 84.6779 13.4637 86.7389 13.4637ZM94.0887 8.062V6.85112H88.9172V8.06153H90.7313V13.3351H92.274V8.06153H94.0887V8.062ZM94.9958 6.8516V13.3351H97.3164C98.8463 13.3351 99.9337 12.5614 99.9337 11.0396C99.9337 9.59661 98.9602 8.83524 97.3416 8.83524H96.5384V6.85112H94.9958V6.8516ZM97.2248 12.1214H96.5384V10.0456H97.2623C97.9392 10.0456 98.3403 10.3442 98.3403 11.0894C98.3403 11.838 97.8979 12.1209 97.2248 12.1209V12.1214Z" fill="white"/>
</g>
<defs>
<clipPath id="clip0_12_1275">
<rect width="15.6641" height="15.1894" fill="white"/>
</clipPath>
<clipPath id="clip1_12_1275">
<rect width="79.2697" height="10.4427" fill="white" transform="translate(20.6641 4.37335)"/>
</clipPath>
</defs>
</svg>
